<svg width="1600" height="1100" viewBox="0 0 1600 1100" fill="none" xmlns="http://www.w3.org/2000/svg">
  <rect width="1600" height="1100" fill="#C9B59C"/>
  <rect x="0" y="0" width="1600" height="1100" fill="url(#paint0_linear_1_2)"/>
  <rect x="1025" y="112" width="356" height="650" rx="10" fill="#E8DED0" fill-opacity="0.65"/>
  <rect x="1124" y="168" width="151" height="446" rx="75.5" fill="#F7F0E8" fill-opacity="0.75"/>
  <rect x="120" y="218" width="860" height="630" rx="24" fill="#EFE6DA" fill-opacity="0.3"/>
  <rect x="180" y="286" width="392" height="468" rx="18" fill="#FAF6F1" fill-opacity="0.9"/>
  <rect x="618" y="286" width="268" height="468" rx="18" fill="#F3E9DC" fill-opacity="0.78"/>
  <rect x="180" y="774" width="706" height="34" rx="17" fill="#8B6A4B"/>
  <rect x="226" y="376" width="300" height="204" rx="8" fill="#D7C8B7"/>
  <rect x="648" y="344" width="208" height="116" rx="10" fill="#D5C4B0"/>
  <rect x="648" y="488" width="208" height="226" rx="10" fill="#CDB89F"/>
  <rect x="220" y="828" width="1270" height="132" rx="28" fill="#554234" fill-opacity="0.45"/>
  <rect x="1060" y="808" width="94" height="152" rx="12" fill="#6A4D37"/>
  <rect x="1180" y="808" width="94" height="152" rx="12" fill="#6A4D37"/>
  <rect x="1300" y="808" width="94" height="152" rx="12" fill="#6A4D37"/>
  <circle cx="1365" cy="254" r="74" fill="#F7EFE4" fill-opacity="0.7"/>
  <path d="M0 940C223 855 416 835 679 851C906 864 1178 941 1600 827V1100H0V940Z" fill="#2B221D" fill-opacity="0.42"/>
  <defs>
    <linearGradient id="paint0_linear_1_2" x1="155" y1="97" x2="1437" y2="978" gradientUnits="userSpaceOnUse">
      <stop stop-color="#B79A79"/>
      <stop offset="0.48" stop-color="#7D624A"/>
      <stop offset="1" stop-color="#31251E"/>
    </linearGradient>
  </defs>
</svg>
